<svg width="40" height="40" viewBox="0 0 40 40" fill="none" xmlns="http://www.w3.org/2000/svg">
<path d="M33.8516 33.1521C37.0964 29.7226 39.0869 25.0939 39.0869 19.9999C39.0869 9.42862 30.5172 0.858887 19.946 0.858887C9.37477 0.858887 0.805115 9.42855 0.805115 19.9999C0.805115 25.0465 2.75911 29.6359 5.95061 33.0556L33.8516 33.1521Z" fill="#1C2E7A"/>
<path d="M29.7175 30.0232C29.6272 29.9549 29.5313 29.8942 29.4386 29.8356C28.8428 29.4593 28.7759 29.2952 29.0452 28.55C29.1569 28.2407 29.2725 27.921 29.207 27.5806C29.0917 26.9811 28.5521 26.7382 28.0302 26.5034C27.4856 26.2583 27.3098 26.1661 27.0312 25.8233C26.7417 25.4673 26.482 25.2525 25.8755 25.2499C25.0765 25.2466 24.1995 25.6455 23.8152 25.145C23.6268 24.8995 23.6603 24.5446 23.6959 24.1687C23.8095 22.9632 23.499 22.2898 23.4233 21.2468C23.3243 19.8818 23.804 18.5014 24.7015 17.477C23.2222 16.9462 21.6293 16.6531 19.968 16.6461C18.7275 16.6409 17.5236 16.7954 16.3755 17.0896C16.2364 17.3385 16.1149 17.5989 16.0281 17.8731C15.7588 18.723 15.8872 19.6006 16.363 20.1633C16.9084 20.8083 17.8841 21.0792 18.0286 21.7813C18.1103 22.1785 17.8908 22.5676 17.6585 22.9796C17.4235 23.396 17.1807 23.8266 17.2129 24.3205C17.2546 24.958 17.7181 25.3882 18.1663 25.8041C19.2407 26.8012 18.9257 26.9376 19.1236 27.4724C19.3536 28.0938 20.0829 28.3124 20.3167 28.7885C20.8169 29.8072 18.8926 31.9643 15.7099 32.29C15.2178 32.3388 14.7086 32.3775 14.3297 32.7028C13.9396 33.0375 14.0835 33.2131 13.1085 33.4959C12.8672 33.5659 12.6177 33.6383 12.3885 33.7662C11.2985 34.3753 11.291 36.2005 12.3775 36.8179C13.0521 37.2012 14.0116 37.1983 14.1895 37.8026C14.2419 37.9807 14.2223 38.1002 14.2316 38.273C16.0363 38.8367 17.9556 39.1408 19.9461 39.1408C22.5476 39.1408 25.0276 38.6208 27.2888 37.6806C27.3081 37.0415 27.0373 36.4372 26.895 35.852C26.7617 35.3034 26.7786 34.5531 27.2653 34.2437C27.5646 34.0533 27.9756 34.0693 28.3794 34.0004C29.2772 33.8471 30.0537 33.2354 30.3578 32.4418C30.685 31.5874 30.4098 30.5475 29.7175 30.0232Z" fill="#73C3F9"/>
<path d="M21.0309 35.6681C18.9712 34.8851 18.8085 33.3554 18.9982 32.2749C19.0626 31.9078 18.9766 31.5443 18.7791 31.2554C17.9909 31.7604 16.9459 32.1636 15.7098 32.2901C15.2177 32.3388 14.7085 32.3775 14.3296 32.7028C13.9396 33.0375 14.0834 33.2131 13.1084 33.4959C12.867 33.5659 12.6175 33.6383 12.3884 33.7662C11.2984 34.3753 11.2909 36.2005 12.3774 36.8179C13.052 37.2012 14.0115 37.1983 14.1893 37.8026C14.2417 37.9807 14.2221 38.1002 14.2315 38.273C16.0362 38.8368 17.9555 39.1408 19.9459 39.1408C20.9307 39.1408 21.8979 39.0661 22.8426 38.9224C22.832 37.7171 22.9513 36.3982 21.0309 35.6681Z" fill="#4FABF7"/>
<path d="M19.3059 27.4044C19.2415 27.2305 19.2362 27.0406 19.1909 26.8608C18.9321 25.8315 17.4762 25.3665 17.4071 24.3076C17.3474 23.3941 18.4037 22.6383 18.2192 21.7418C18.0536 20.937 17.0421 20.6646 16.5115 20.0371C16.0336 19.4721 15.99 18.6373 16.2136 17.9319C16.3149 17.6121 16.4633 17.3127 16.6363 17.0256C10.3987 18.4976 5.74406 24.0866 5.71578 30.7777C5.71258 31.5256 5.7686 32.2599 5.87711 32.9771C8.16962 35.4611 11.1114 37.3361 14.4335 38.3336C14.4329 38.3286 14.4318 38.3237 14.4314 38.3187C14.4132 38.1277 14.4304 37.9312 14.3761 37.7472C14.1612 37.017 13.1352 37.024 12.4733 36.6479C11.5192 36.1058 11.5252 34.4715 12.4832 33.9364C12.9858 33.6556 13.6365 33.6553 14.0626 33.2682C14.2043 33.1394 14.311 32.9753 14.4562 32.8505C14.797 32.558 15.2824 32.5296 15.7291 32.4839C17.4105 32.3118 19.1201 31.6331 20.1391 30.2846C20.4825 29.8302 20.7423 29.2134 20.4912 28.702C20.2301 28.1702 19.5117 27.9603 19.3059 27.4044Z" fill="#4FABF7"/>
<path d="M18.113 30.7428C13.5775 29.1375 16.9998 24.2059 14.3952 22.8031C12.4436 21.752 12.5814 19.6913 12.8503 18.5239C8.60556 20.9616 5.73797 25.5307 5.71578 30.7779C5.71258 31.5259 5.7686 32.2602 5.87711 32.9773C8.16963 35.4614 11.1114 37.3364 14.4334 38.3338C14.4329 38.3288 14.4318 38.3239 14.4313 38.3189C14.4131 38.128 14.4303 37.9315 14.3761 37.7475C14.1611 37.0173 13.1351 37.0243 12.4733 36.6482C11.5193 36.1061 11.5252 34.4718 12.4832 33.9366C12.9857 33.6558 13.6365 33.6556 14.0626 33.2684C14.2043 33.1396 14.311 32.9755 14.4562 32.8507C14.797 32.5582 15.2823 32.5298 15.7291 32.4841C16.837 32.3707 17.9558 32.0356 18.8825 31.4357C18.7316 31.1213 18.4628 30.8667 18.113 30.7428Z" fill="#1E9EF4"/>
<path d="M24.5051 17.4072C23.6086 18.4644 23.1281 19.876 23.2285 21.2609C23.2932 22.1526 23.5822 23.0299 23.521 23.9219C23.4895 24.382 23.3793 24.8979 23.6603 25.2638C24.2906 26.0849 25.7803 25.0266 26.6026 25.6552C26.7821 25.7925 26.9 25.9945 27.0607 26.1534C27.6593 26.7456 28.8562 26.7906 29.0152 27.6174C29.1345 28.2376 28.5073 28.8744 28.7569 29.4545C28.9055 29.7998 29.2997 29.9517 29.5994 30.1786C30.2459 30.6682 30.4655 31.6147 30.1754 32.372C29.8854 33.1293 29.1458 33.6715 28.3465 33.8079C27.9433 33.8768 27.5057 33.8595 27.1605 34.079C26.5965 34.4376 26.5474 35.2487 26.7054 35.8981C26.8561 36.518 27.1379 37.1313 27.0891 37.7622C29.7028 36.7101 32.0304 35.098 33.9241 33.0743C34.0364 32.365 34.0966 31.6382 34.0997 30.8978C34.1261 24.6477 30.1083 19.3244 24.5051 17.4072Z" fill="#4FABF7"/>
<path d="M31.4803 25.1078C31.7493 23.9854 31.0576 22.8574 29.9352 22.5883C28.8128 22.3193 27.6848 23.0111 27.4158 24.1335C27.1467 25.2559 27.8385 26.3839 28.9609 26.6529C30.0832 26.922 31.2112 26.2302 31.4803 25.1078Z" fill="#FFDD40"/>
<path d="M30.1595 26.591C29.056 26.0877 29.7235 25.1445 29.7235 25.1445L29.363 24.1541C28.3292 23.9445 28.3498 23.184 28.4302 22.803C27.8039 23.1619 27.3805 23.8352 27.3773 24.6088C27.3724 25.7635 28.3045 26.7036 29.4592 26.7084C29.7048 26.7094 29.9404 26.6678 30.1595 26.591Z" fill="#FFB332"/>
<path d="M28.9413 24.8731C28.8002 24.5822 28.9216 24.2319 29.2126 24.0909L32.4928 22.5002L32.5108 18.2469C32.5121 17.9235 32.7754 17.6625 33.0988 17.6638C33.4221 17.6652 33.6831 17.9284 33.6818 18.2518L33.6623 22.8702C33.6613 23.0936 33.5333 23.297 33.3323 23.3945L29.7236 25.1445C29.4327 25.2855 29.0824 25.1641 28.9413 24.8731Z" fill="#E9EFFF"/>
<path d="M11.1604 26.4924C12.2367 26.0732 12.7693 24.861 12.3501 23.7847C11.931 22.7085 10.7187 22.1758 9.64248 22.595C8.56626 23.0142 8.03361 24.2265 8.45278 25.3027C8.87196 26.3789 10.0842 26.9116 11.1604 26.4924Z" fill="#49D88B"/>
<path d="M11.2579 26.444C10.2274 25.9834 10.743 25.0119 10.743 25.0119L10.6065 24.3398C9.52574 23.6757 10.1696 22.4595 10.1696 22.4595C9.12731 22.5741 8.31426 23.4548 8.30973 24.5284C8.30481 25.6831 9.23699 26.6232 10.3917 26.628C10.7004 26.6293 10.9936 26.5631 11.2579 26.444Z" fill="#38C674"/>
<path d="M10.1411 25.0616L6.54732 23.2812C6.34708 23.182 6.22075 22.9776 6.22169 22.7541L6.24122 18.1358C6.24263 17.8124 6.50583 17.5514 6.82919 17.5527C7.15255 17.5541 7.41357 17.8173 7.41224 18.1407L7.39427 22.394L10.6609 24.0123C10.9507 24.1559 11.0692 24.5072 10.9257 24.7969C10.7823 25.0861 10.4315 25.2055 10.1411 25.0616Z" fill="#E9EFFF"/>
<path d="M16.1757 13.0643L15.2562 13.0604C14.9329 13.0591 14.6718 12.7958 14.6732 12.4725C14.6745 12.1491 14.9378 11.8881 15.2611 11.8894L16.1806 11.8933C16.504 11.8946 16.765 12.1579 16.7637 12.4813C16.7623 12.8047 16.499 13.0657 16.1757 13.0643Z" fill="#3C58A0"/>
<path d="M19.0208 13.0763L18.1013 13.0724C17.778 13.071 17.5169 12.8078 17.5183 12.4844C17.5196 12.1611 17.7829 11.9 18.1062 11.9014L19.0257 11.9053C19.3491 11.9067 19.6101 12.1699 19.6087 12.4933C19.6073 12.8166 19.3441 13.0776 19.0208 13.0763Z" fill="#3C58A0"/>
<path d="M21.8648 13.088L20.9454 13.0841C20.622 13.0827 20.361 12.8196 20.3623 12.4961C20.3636 12.1727 20.6269 11.9118 20.9503 11.9131L21.8698 11.917C22.1932 11.9184 22.4542 12.1816 22.4529 12.505C22.4514 12.8284 22.1882 13.0894 21.8648 13.088Z" fill="#3C58A0"/>
<path d="M24.7098 13.1L23.7903 13.0961C23.4669 13.0947 23.2059 12.8315 23.2072 12.5081C23.2085 12.1847 23.4718 11.9237 23.7952 11.9251L24.7146 11.929C25.038 11.9303 25.299 12.1936 25.2977 12.5169C25.2964 12.8404 25.0332 13.1014 24.7098 13.1Z" fill="#3C58A0"/>
<path d="M37.5738 16.9818C40.0199 14.5357 40.0199 10.5698 37.5738 8.12365C35.1276 5.67754 31.1617 5.67754 28.7156 8.12365C26.2695 10.5698 26.2695 14.5357 28.7156 16.9818C31.1617 19.4279 35.1276 19.4279 37.5738 16.9818Z" fill="#FFC839"/>
<path d="M37.5445 17.0146C37.3939 16.877 37.3556 16.6855 37.3513 16.5443C37.3483 16.4474 37.262 16.3743 37.1655 16.3836C35.9671 16.4998 33.5619 15.929 32.9783 15.7842C32.9019 15.7653 32.8487 15.6966 32.8491 15.6178L32.8756 9.32783C32.8758 9.27846 32.8541 9.23213 32.8176 9.19885C32.1531 8.59244 32.3831 7.99439 32.5488 7.72307C32.5967 7.64463 32.5696 7.54557 32.4944 7.49268C32.3082 7.36143 32.3316 7.16916 32.3767 7.04135C32.4036 6.9651 32.3753 6.87994 32.306 6.8383C32.0883 6.70736 32.0023 6.54924 31.9853 6.39502C29.093 6.93924 26.8987 9.47119 26.8858 12.5236C26.8712 15.9835 29.6641 18.8 33.1238 18.8146C34.8455 18.8221 36.4074 18.1338 37.5445 17.0146Z" fill="#FFB332"/>
<path d="M37.1296 16.2896C37.1166 16.2874 37.1377 16.2912 37.0863 16.283L37.0851 16.2837C36.6738 16.2226 36.0415 16.3643 35.4123 15.994C35.1291 16.4165 34.7969 16.7475 34.4874 16.9857C34.0992 17.2846 33.621 17.4457 33.1292 17.4437C32.6374 17.4416 32.1606 17.2764 31.7749 16.9743C31.4676 16.7336 31.1384 16.4001 30.8589 15.9756C30.2461 16.3312 29.6448 16.1936 29.2185 16.2461C29.2184 16.246 29.2183 16.2458 29.2183 16.2457C29.1675 16.2524 29.1614 16.2521 29.1387 16.2558L29.1425 16.2593C28.8555 16.3093 28.5942 16.4297 28.372 16.5998C29.5153 17.9475 31.2176 18.8068 33.1233 18.8149C35.0296 18.8229 36.7393 17.9776 37.894 16.6391C37.6736 16.467 37.4136 16.3441 37.1273 16.2915L37.1296 16.2896Z" fill="#E9EFFF"/>
<path d="M31.775 16.9743C31.4677 16.7336 31.1385 16.4001 30.859 15.9756C30.2462 16.3312 29.6449 16.1936 29.2186 16.2461C29.2185 16.246 29.2184 16.2458 29.2184 16.2457C29.1676 16.2524 29.1615 16.2521 29.1388 16.2558L29.1426 16.2593C28.8556 16.3093 28.5943 16.4297 28.3721 16.5998C28.7754 17.0751 29.2484 17.4893 29.7751 17.8273C30.0498 17.7752 30.3636 17.7262 30.723 17.684C31.317 17.6144 31.7683 17.4246 32.1108 17.19C31.9933 17.1283 31.8805 17.057 31.775 16.9743Z" fill="#BEC8F7"/>
<path d="M30.7856 16.0163C31.0796 16.4963 31.4402 16.8685 31.7749 17.1306C32.1606 17.4327 32.6374 17.598 33.1291 17.6C33.6209 17.6021 34.0991 17.4409 34.4874 17.142C34.8244 16.8826 35.1884 16.5132 35.4867 16.0352C35.3133 15.9439 35.1395 15.8161 34.9701 15.6362L34.9709 15.6352C34.684 15.331 34.6122 15.0873 34.4023 14.7174C33.6227 15.1216 32.6784 15.1291 31.8805 14.7068C31.6566 15.0937 31.5884 15.3234 31.3041 15.6198L31.305 15.6208C31.1327 15.8003 30.9584 15.9267 30.7856 16.0163Z" fill="#FCAD6D"/>
<path d="M32.9536 15.0141C32.5854 14.9874 32.2197 14.8863 31.8804 14.7068C31.6565 15.0937 31.5883 15.3234 31.3041 15.6198L31.3049 15.6208C31.1328 15.8003 30.9584 15.9268 30.7856 16.0163C31.0796 16.4963 31.4402 16.8685 31.7749 17.1306C31.8413 17.1827 31.9114 17.2291 31.9829 17.273C32.9413 16.6951 33.1369 15.753 33.1369 15.753C33.1369 15.753 33.0577 15.4389 32.9536 15.0141Z" fill="#FD995B"/>
<path d="M32.6576 7.57201C31.1153 7.77552 30.9651 8.64888 30.9631 8.96951C30.9627 9.03677 30.9251 9.09888 30.8646 9.1281C30.0612 9.51474 30.4855 11.3965 30.4855 11.3965C30.5659 11.4022 30.6864 11.4718 30.7491 11.5025C30.7649 11.4068 30.7905 11.3125 30.8263 11.2215C30.8537 11.1522 30.8877 11.0822 30.9303 11.0161C31.0041 10.9013 31.0381 10.7658 31.0287 10.63C31.0015 10.2377 30.982 9.50138 31.5007 9.2706C31.9401 9.07513 32.4776 9.19169 32.8201 9.30716C33.0426 9.38216 33.284 9.38325 33.5071 9.31005C33.8506 9.1974 34.3891 9.08544 34.8268 9.28458C35.342 9.51904 35.3177 10.2515 35.2876 10.6446C35.2771 10.7812 35.309 10.9185 35.3824 11.0347C35.4258 11.1033 35.4601 11.1761 35.4873 11.2479C35.521 11.3371 35.5449 11.4292 35.5595 11.5227C35.6389 11.4847 35.789 11.407 35.8858 11.4211C35.8994 11.01 35.9392 10.5671 35.9392 10.5671C36.4055 8.33185 34.3183 7.35287 32.6576 7.57201Z" fill="#A05838"/>
<path d="M32.8202 9.30719C32.8381 9.31329 32.8564 9.31805 32.8746 9.32313C32.8734 9.27563 32.8523 9.23118 32.8171 9.19899C32.1527 8.59259 32.3827 7.99454 32.5484 7.72321C32.5748 7.68001 32.5777 7.63071 32.563 7.58618C31.11 7.81251 30.9651 8.65563 30.9631 8.96954C30.9627 9.0368 30.9251 9.09891 30.8646 9.12813C30.0612 9.51477 30.4855 11.3965 30.4855 11.3965C30.5659 11.4022 30.6865 11.4718 30.7491 11.5025C30.7649 11.4068 30.7905 11.3126 30.8263 11.2216C30.8537 11.1522 30.8877 11.0822 30.9303 11.0161C31.0041 10.9013 31.0381 10.7658 31.0287 10.6301C31.0015 10.2377 30.982 9.50141 31.5007 9.27063C31.9401 9.07508 32.4776 9.19165 32.8202 9.30719Z" fill="#823C26"/>
<path d="M36.0229 11.4753C35.9033 11.3647 35.6639 11.4195 35.5602 11.4864C35.5822 11.6276 35.5829 11.7719 35.5628 11.9143L35.437 12.8025C35.4367 12.8742 35.4341 12.9445 35.4297 13.0135C35.7268 13.1045 35.8758 12.838 35.9015 12.6548C35.9125 12.576 35.9304 12.4982 35.955 12.4225C36.0352 12.1756 36.3225 11.7522 36.0229 11.4753Z" fill="#FD995B"/>
<path d="M30.2872 11.451C30.4077 11.3414 30.6466 11.3982 30.7497 11.466C30.7265 11.607 30.7246 11.7513 30.7436 11.8939L30.8619 12.7831C30.8615 12.8548 30.8635 12.9251 30.8674 12.9942C30.5695 13.0827 30.4228 12.8149 30.3986 12.6315C30.3882 12.5525 30.3711 12.4747 30.3471 12.3987C30.2689 12.1511 29.9852 11.7253 30.2872 11.451Z" fill="#FD995B"/>
<path d="M35.524 11.2117C35.4968 11.1399 35.4625 11.0672 35.4192 10.9985C35.3458 10.8823 35.3139 10.745 35.3243 10.6084C35.3545 10.2153 35.3425 9.4462 34.8272 9.21175C34.3895 9.01261 33.8511 9.12456 33.5075 9.23714C33.2844 9.31027 33.043 9.30925 32.8205 9.23425C32.4779 9.1187 31.9405 9.00222 31.5011 9.19769C30.9825 9.42847 30.9653 10.2012 30.9925 10.5935C31.0018 10.7292 30.9678 10.8647 30.8941 10.9795C30.8516 11.0456 30.8175 11.1157 30.7901 11.185C30.7014 11.4099 30.6749 11.6542 30.7067 11.8935L30.825 12.783C30.8196 14.0609 31.4981 14.9324 32.0764 15.3855C32.3783 15.622 32.7516 15.7513 33.1365 15.7529C33.5215 15.7546 33.8958 15.6284 34.1997 15.3945C34.7818 14.9464 35.4676 14.0806 35.473 12.8027L35.5988 11.9145C35.6323 11.6777 35.6087 11.4356 35.524 11.2117Z" fill="#F9BA8F"/>
<path d="M33.324 15.3907C32.9254 14.9384 32.4584 14.0678 32.4638 12.7899L32.3833 11.9007C32.3617 11.6613 32.3804 11.417 32.4418 11.1919C32.4607 11.1225 32.4844 11.0525 32.5139 10.9863C32.565 10.8714 32.5886 10.7358 32.5822 10.6001C32.565 10.231 32.5757 9.52511 32.8755 9.25034C32.8571 9.24519 32.8386 9.24034 32.8205 9.23425C32.4779 9.1187 31.9404 9.00222 31.5011 9.19769C30.9825 9.42847 30.9653 10.2012 30.9925 10.5935C31.0018 10.7292 30.9679 10.8647 30.8941 10.9795C30.8515 11.0456 30.8175 11.1157 30.7901 11.185C30.7014 11.4099 30.6749 11.6542 30.7067 11.8935L30.825 12.783C30.8196 14.0609 31.4981 14.9324 32.0764 15.3855C32.3783 15.622 32.7516 15.7513 33.1365 15.7529C33.3226 15.7537 33.506 15.724 33.6804 15.6673C33.5522 15.6053 33.4314 15.5126 33.324 15.3907Z" fill="#FCAD6D"/>
<path d="M33.1216 19.4002C29.3444 19.3842 26.2845 16.2983 26.3004 12.5211C26.3164 8.74401 29.4023 5.68408 33.1795 5.70001C36.9566 5.71595 40.0165 8.80191 40.0006 12.579C39.9846 16.3562 36.8987 19.4161 33.1216 19.4002ZM33.1745 6.87096C30.043 6.85775 27.4846 9.39457 27.4714 12.5261C27.4582 15.6575 29.995 18.2159 33.1265 18.2291C36.2579 18.2424 38.8163 15.7055 38.8295 12.574C38.8428 9.44261 36.3059 6.88424 33.1745 6.87096Z" fill="#FFE98D"/>
<path d="M38.1604 17.1877C37.4754 17.215 37.3592 16.7982 37.3514 16.5443C37.35 16.4971 37.3285 16.4556 37.2959 16.4265C36.2533 17.5407 34.7692 18.2362 33.1265 18.2293C29.9951 18.216 27.4582 15.6576 27.4714 12.5262C27.4835 9.66545 29.62 7.30224 32.3767 6.92481C32.3641 6.88966 32.3401 6.85872 32.3062 6.83833C31.7792 6.52137 32.0223 6.04488 32.1549 5.85035C32.1719 5.82551 32.1804 5.79723 32.1829 5.76855C28.8742 6.23848 26.315 9.0824 26.3004 12.5213C26.2845 16.2984 29.3445 19.3843 33.1216 19.4003C35.1212 19.4087 36.927 18.555 38.1862 17.1892C38.1777 17.1883 38.1692 17.1874 38.1604 17.1877Z" fill="#FFC839"/>
<path d="M11.2773 16.8676C13.7234 14.4214 13.7234 10.4555 11.2773 8.00939C8.83117 5.56328 4.86524 5.56328 2.41913 8.00939C-0.0269832 10.4555 -0.0269827 14.4214 2.41913 16.8676C4.86524 19.3137 8.83117 19.3137 11.2773 16.8676Z" fill="#38C674"/>
<path d="M11.2444 16.9035C11.0938 16.7659 11.0555 16.5744 11.0512 16.4332C11.0483 16.3364 10.9619 16.2632 10.8654 16.2725C9.66701 16.3887 7.26177 15.8179 6.6781 15.6732C6.6017 15.6542 6.54857 15.5855 6.54888 15.5067L6.57545 9.21683C6.57568 9.16745 6.55388 9.12112 6.5174 9.08784C5.85295 8.48144 6.08287 7.88339 6.24865 7.61206C6.29654 7.53362 6.26943 7.43456 6.19435 7.38167C6.0081 7.25042 6.03154 7.05815 6.07662 6.93034C6.10349 6.85409 6.07521 6.76894 6.00591 6.72722C5.78826 6.59628 5.70216 6.43815 5.68521 6.28394C2.79295 6.82839 0.598649 9.36026 0.585758 12.4127C0.571149 15.8725 3.36404 18.6891 6.8238 18.7037C8.54537 18.711 10.1073 18.0228 11.2444 16.9035Z" fill="#24B55E"/>
<path d="M10.8295 16.1783C10.8166 16.1761 10.8377 16.18 10.7862 16.1718L10.785 16.1725C10.3737 16.1113 9.74148 16.2531 9.11226 15.8828C8.82906 16.3053 8.4968 16.6363 8.18734 16.8745C7.79914 17.1733 7.32094 17.3345 6.82914 17.3325C6.33735 17.3303 5.86055 17.1651 5.47492 16.863C5.16766 16.6223 4.83836 16.2888 4.55891 15.8643C3.9461 16.2199 3.34485 16.0823 2.91852 16.1347C2.91844 16.1346 2.91829 16.1345 2.91829 16.1344C2.8675 16.1411 2.86141 16.1408 2.83875 16.1445L2.8425 16.1479C2.55555 16.1979 2.29422 16.3184 2.07204 16.4885C3.21532 17.8361 4.91758 18.6955 6.82336 18.7036C8.72961 18.7116 10.4394 17.8663 11.594 16.5278C11.3735 16.3557 11.1135 16.2328 10.8273 16.1802L10.8295 16.1783Z" fill="#E9EFFF"/>
<path d="M5.47501 16.863C5.16775 16.6223 4.83845 16.2888 4.559 15.8643C3.94618 16.2199 3.34493 16.0823 2.91861 16.1347C2.91853 16.1346 2.91837 16.1345 2.91837 16.1344C2.86759 16.1411 2.8615 16.1408 2.83884 16.1445L2.84259 16.1479C2.55564 16.1979 2.29431 16.3184 2.07212 16.4885C2.4754 16.9638 2.94845 17.378 3.47517 17.716C3.74978 17.6639 4.06361 17.6149 4.42306 17.5727C5.01704 17.5031 5.46837 17.3132 5.81087 17.0786C5.69329 17.017 5.58048 16.9457 5.47501 16.863Z" fill="#BEC8F7"/>
<path d="M4.4855 15.9052C4.77956 16.3852 5.14018 16.7573 5.47479 17.0195C5.8605 17.3216 6.3373 17.4868 6.82909 17.4889C7.32089 17.491 7.79909 17.3298 8.1873 17.0309C8.52433 16.7715 8.88831 16.4021 9.18659 15.9241C9.01324 15.8328 8.83949 15.705 8.67003 15.5252L8.67089 15.5241C8.38394 15.2199 8.31214 14.9763 8.10222 14.6063C7.32261 15.0105 6.37839 15.018 5.58042 14.5957C5.35651 14.9826 5.28823 15.2123 5.00409 15.5087L5.00495 15.5097C4.83276 15.6891 4.65839 15.8155 4.4855 15.9052Z" fill="#FCAD6D"/>
<path d="M6.65355 14.9028C6.28534 14.8761 5.91964 14.775 5.58034 14.5955C5.35644 14.9823 5.28823 15.2121 5.00401 15.5084L5.00487 15.5094C4.83276 15.689 4.65839 15.8155 4.4855 15.9051C4.77956 16.3851 5.14019 16.7573 5.4748 17.0194C5.54128 17.0715 5.61136 17.1179 5.68284 17.1617C6.64128 16.5839 6.83683 15.6418 6.83683 15.6418C6.83683 15.6418 6.75761 15.3276 6.65355 14.9028Z" fill="#FD995B"/>
<path d="M6.35771 7.46092C4.81537 7.66444 4.66521 8.5378 4.66318 8.85842C4.66271 8.92569 4.62521 8.9878 4.56466 9.01702C3.76123 9.40366 4.1856 11.2854 4.1856 11.2854C4.26607 11.2911 4.38654 11.3607 4.44927 11.3914C4.46505 11.2957 4.4906 11.2015 4.52646 11.1105C4.5538 11.0411 4.58787 10.9711 4.63045 10.905C4.70427 10.7902 4.73826 10.6547 4.72888 10.519C4.70169 10.1266 4.68224 9.3903 5.20091 9.15952C5.64029 8.96405 6.17779 9.08061 6.52037 9.19608C6.74287 9.27108 6.98419 9.27217 7.20732 9.19897C7.55084 9.08631 8.08935 8.97436 8.52709 9.1735C9.04232 9.40795 9.01802 10.1404 8.98787 10.5335C8.9774 10.6701 9.00927 10.8074 9.08271 10.9237C9.12607 10.9922 9.16037 11.065 9.18755 11.1368C9.2213 11.226 9.24521 11.3181 9.25982 11.4117C9.33919 11.3737 9.48927 11.296 9.58607 11.3101C9.59966 10.899 9.63951 10.4561 9.63951 10.4561C10.1056 8.22077 8.01841 7.24178 6.35771 7.46092Z" fill="#A05838"/>
<path d="M6.52042 9.19611C6.53839 9.20221 6.55667 9.20697 6.57487 9.21205C6.57362 9.16455 6.55261 9.1201 6.51737 9.08791C5.85292 8.4815 6.08284 7.88346 6.24862 7.61213C6.27503 7.56893 6.27792 7.51963 6.26331 7.4751C4.81018 7.70143 4.66534 8.54455 4.66339 8.85846C4.66292 8.92572 4.62542 8.98783 4.56487 9.01705C3.76143 9.40369 4.18581 11.2854 4.18581 11.2854C4.26628 11.2911 4.38675 11.3607 4.44948 11.3914C4.46526 11.2957 4.49081 11.2015 4.52667 11.1105C4.55401 11.0411 4.58807 10.9711 4.63065 10.905C4.70448 10.7903 4.73846 10.6547 4.72909 10.519C4.7019 10.1267 4.68245 9.39033 5.20112 9.15955C5.64034 8.964 6.17776 9.08057 6.52042 9.19611Z" fill="#823C26"/>
<path d="M9.72317 11.3642C9.60356 11.2536 9.36419 11.3084 9.26052 11.3754C9.28255 11.5165 9.28325 11.6608 9.2631 11.8033L9.13732 12.6915C9.13701 12.7631 9.13443 12.8333 9.12997 12.9024C9.42716 12.9934 9.57606 12.7269 9.60177 12.5437C9.61278 12.4648 9.63067 12.3872 9.65528 12.3114C9.73552 12.0645 10.0229 11.6411 9.72317 11.3642Z" fill="#FD995B"/>
<path d="M3.98719 11.3399C4.10774 11.2303 4.34665 11.2871 4.44977 11.355C4.42649 11.4959 4.42461 11.6403 4.4436 11.7828L4.56188 12.6721C4.56157 12.7437 4.56352 12.814 4.56743 12.8831C4.26954 12.9716 4.12282 12.7039 4.09868 12.5204C4.08829 12.4414 4.0711 12.3636 4.04711 12.2876C3.96891 12.04 3.68516 11.6142 3.98719 11.3399Z" fill="#FD995B"/>
<path d="M9.2246 11.1006C9.19741 11.0288 9.16311 10.9561 9.11975 10.8875C9.04639 10.7712 9.01444 10.6339 9.02491 10.4973C9.05506 10.1042 9.04303 9.33512 8.5278 9.10067C8.09006 8.90153 7.5517 9.01348 7.20811 9.12606C6.98499 9.19918 6.7435 9.19817 6.52108 9.12317C6.1785 9.00762 5.64108 8.89114 5.2017 9.0866C4.68303 9.31731 4.66592 10.09 4.69303 10.4824C4.70241 10.6181 4.6685 10.7536 4.59467 10.8684C4.55217 10.9345 4.51803 11.0046 4.49069 11.0739C4.40202 11.2988 4.37545 11.5431 4.40725 11.7825L4.52553 12.6719C4.52014 13.9498 5.19866 14.8213 5.77702 15.2744C6.07889 15.5109 6.45217 15.6402 6.8371 15.6418C7.2221 15.6435 7.59639 15.5173 7.90022 15.2834C8.48241 14.8353 9.16827 13.9695 9.17366 12.6916L9.29944 11.8034C9.33303 11.5666 9.30936 11.3245 9.2246 11.1006Z" fill="#F9BA8F"/>
<path d="M7.0246 15.2793C6.62608 14.8271 6.15905 13.9564 6.16444 12.6786L6.08398 11.7893C6.06234 11.55 6.08101 11.3057 6.14249 11.0806C6.16148 11.0112 6.18507 10.9411 6.21452 10.875C6.26562 10.7601 6.28921 10.6245 6.28288 10.4889C6.26577 10.1197 6.27632 9.41378 6.57624 9.13902C6.5578 9.13386 6.53937 9.12902 6.52116 9.12292C6.17859 9.00738 5.64116 8.89089 5.20179 9.08636C4.68312 9.31706 4.66601 10.0898 4.69312 10.4821C4.70249 10.6178 4.66859 10.7534 4.59476 10.8682C4.55226 10.9343 4.51812 11.0043 4.49077 11.0736C4.4021 11.2986 4.37554 11.5428 4.40734 11.7822L4.52562 12.6717C4.52023 13.9496 5.19874 14.8211 5.7771 15.2742C6.07898 15.5107 6.45226 15.64 6.83718 15.6416C7.02327 15.6424 7.20671 15.6127 7.38101 15.556C7.25288 15.494 7.1321 15.4013 7.0246 15.2793Z" fill="#FCAD6D"/>
<path d="M6.82152 19.2893C3.04439 19.2734 -0.0155476 16.1874 0.00039004 12.4103C0.0163276 8.63318 3.10228 5.57316 6.87941 5.58917C10.6565 5.60511 13.7165 8.69107 13.7005 12.4682C13.6845 16.2453 10.5987 19.3053 6.82152 19.2893ZM6.87441 6.76012C3.74299 6.74691 1.18462 9.28373 1.17133 12.4152C1.15805 15.5467 3.69494 18.1051 6.82645 18.1183C9.95787 18.1315 12.5162 15.5947 12.5294 12.4632C12.5427 9.33177 10.0059 6.77332 6.87441 6.76012Z" fill="#49D88B"/>
<path d="M11.8603 17.0768C11.1752 17.1042 11.0591 16.6873 11.0513 16.4335C11.0499 16.3862 11.0283 16.3448 10.9957 16.3157C9.95313 17.4298 8.46898 18.1254 6.82632 18.1184C3.69489 18.1052 1.158 15.5468 1.17121 12.4153C1.18332 9.55469 3.31981 7.1914 6.07647 6.81397C6.06389 6.77882 6.03991 6.74788 6.006 6.72749C5.47904 6.41053 5.72209 5.93404 5.85467 5.73951C5.87162 5.71467 5.88014 5.68639 5.88264 5.65771C2.57395 6.12764 0.0147154 8.97164 0.000184047 12.4104C-0.0157535 16.1875 3.04419 19.2735 6.82132 19.2894C8.82094 19.2979 10.6267 18.4441 11.886 17.0784C11.8775 17.0775 11.869 17.0765 11.8603 17.0768Z" fill="#38C674"/>
</svg>
