<svg width="40" height="40" viewBox="0 0 40 40" fill="none" xmlns="http://www.w3.org/2000/svg">
<path d="M6.71772 34.6403C9.17561 37.0098 12.2653 38.7284 15.7098 39.5171L25.1069 39.3101C28.2232 38.4494 31.0204 36.8209 33.2823 34.6403L36.1737 31.0987C38.0523 28.1376 39.1408 24.6258 39.1408 20.8594C39.1408 10.2882 30.5712 1.71851 20.0001 1.71851C9.42889 1.71851 0.859207 10.2883 0.859207 20.8594C0.859207 24.6258 1.9478 28.1376 3.82639 31.0988L6.71772 34.6403Z" fill="#FFDD40"/>
<path d="M6.71819 34.6401H33.2828C34.3811 33.5813 35.3531 32.3927 36.1741 31.0985V21.7185C35.6295 21.28 35.0685 20.7737 34.4891 20.1942C28.8178 14.5228 24.1404 25.5865 14.6892 14.0745C10.5021 8.97438 5.89936 9.5768 3.82686 10.2299V31.0984C4.64795 32.3927 5.61991 33.5813 6.71819 34.6401Z" fill="#E9EFFF"/>
<path d="M8.25105 30.0524C8.25105 30.0524 8.25105 14.8441 8.25105 13.0211C8.25105 11.7237 8.87269 11.0452 9.23105 10.7618C9.36644 10.6548 9.4123 10.4705 9.34582 10.3113C9.33223 10.2788 9.32105 10.2475 9.30879 10.2155C7.02137 9.50066 5.01027 9.85676 3.8259 10.23V31.0986C4.64691 32.3927 5.61894 33.5813 6.71723 34.6401H11.0946C8.07996 33.482 8.25105 30.0524 8.25105 30.0524Z" fill="#D3DCFB"/>
<path d="M14.6882 14.4015C24.1395 25.9135 28.8168 14.8498 34.4882 20.5213C35.0675 21.1007 35.6286 21.607 36.1732 22.0455V7.01953H3.8259V10.5569C5.89832 9.90383 10.5011 9.30141 14.6882 14.4015Z" fill="#9BD8F9"/>
<path d="M3.8259 7.01953V10.5569C5.01973 10.1807 7.05324 9.82157 9.36316 10.5593C9.38418 10.4791 9.37957 10.392 9.3459 10.3114C8.51504 8.32157 10.0826 7.41219 10.4729 7.22172C10.5309 7.19344 10.5804 7.15133 10.6177 7.09875L10.6739 7.01961H3.8259V7.01953Z" fill="#73C3F9"/>
<path d="M33.3236 0H6.67543C5.10816 0 3.8259 1.28227 3.8259 2.84953V4.72555H36.1732V2.84953C36.1731 1.28227 34.8908 0 33.3236 0V0Z" fill="#2A428C"/>
<path d="M12.2494 4.375C11.967 3.93656 12.1956 3.5443 12.3305 3.37281C12.3836 3.30531 12.4118 3.22195 12.4118 3.13602V1.59203C12.4118 1.50047 12.3774 1.41336 12.3198 1.34211C11.9726 0.911875 12.1151 0.474453 12.2577 0.220625C12.2964 0.151797 12.3109 0.0749219 12.3041 0H6.67535C5.10816 0 3.8259 1.28227 3.8259 2.84953V4.72555H12.2886C12.3322 4.61156 12.3181 4.48156 12.2494 4.375Z" fill="#1C2E7A"/>
<path d="M8.23823 2.50986C8.3194 2.00913 7.97928 1.5374 7.47855 1.45623C6.97782 1.37506 6.5061 1.71518 6.42493 2.21591C6.34376 2.71664 6.68388 3.18836 7.1846 3.26953C7.68533 3.35071 8.15706 3.01059 8.23823 2.50986Z" fill="#FF4155"/>
<path d="M10.7909 2.36269C10.7909 2.86995 10.3797 3.28128 9.87242 3.28128C9.36508 3.28128 8.95383 2.87003 8.95383 2.36269C8.95383 1.85534 9.36508 1.44409 9.87242 1.44409C10.3797 1.44417 10.7909 1.85542 10.7909 2.36269Z" fill="#FFDD40"/>
<path d="M13.3219 2.5112C13.4036 2.01047 13.0639 1.53834 12.5632 1.45666C12.0624 1.37498 11.5903 1.71469 11.5086 2.21542C11.4269 2.71615 11.7666 3.18828 12.2674 3.26996C12.7681 3.35164 13.2402 3.01193 13.3219 2.5112Z" fill="#38C674"/>
<path d="M25.0579 14.4507H14.9425C13.3763 14.4507 12.1067 15.7203 12.1067 17.2865C12.1067 18.8526 13.3763 20.1222 14.9425 20.1222H25.0579C26.624 20.1222 27.8936 18.8526 27.8936 17.2865C27.8936 15.7203 26.624 14.4507 25.0579 14.4507Z" fill="#38C674"/>
<path d="M27.4326 18.2472H19.9695C18.8139 18.2472 17.8772 17.3105 17.8772 16.155C17.8772 15.4517 18.2246 14.83 18.7567 14.4507H14.9425C13.3763 14.4507 12.1067 15.7203 12.1067 17.2865C12.1067 18.8526 13.3763 20.1222 14.9425 20.1222H25.0579C26.2948 20.1222 27.3462 19.3299 27.7338 18.2254C27.6354 18.2396 27.535 18.2472 27.4326 18.2472Z" fill="#24B55E"/>
<path d="M13.167 4.57373C13.167 6.01475 11.9988 7.18287 10.5578 7.18287H36.1731V4.57373H13.167Z" fill="#E9EFFF"/>
<path d="M3.8259 4.57373V7.18295H10.7213C12.1623 7.18295 13.3305 6.01475 13.3305 4.57381H3.8259V4.57373Z" fill="#4FABF7"/>
<path d="M25.0491 23.3412H24.9161C24.1462 23.3412 23.5163 23.9712 23.5163 24.741V23.7991C23.5163 23.051 22.9715 22.394 22.2288 22.3048C21.3433 22.1985 20.5837 22.8951 20.5837 23.7604V23.4646C20.5837 22.7165 20.039 22.0595 19.2962 21.9703C18.4108 21.8639 17.651 22.5605 17.651 23.4258V18.7631C17.651 18.015 17.1062 17.358 16.3634 17.2688C15.478 17.1625 14.7183 17.859 14.7183 18.7244V26.5069C14.7183 26.6601 14.5915 26.783 14.4384 26.7774C14.043 26.763 13.4341 26.7491 12.9426 27.3056C11.8662 28.5243 11.638 30.2749 12.3665 31.729C13.0531 33.0567 12.1319 31.5969 15.3719 35.7816C15.5905 36.0569 15.7094 36.398 15.7094 36.7495V39.517C17.0887 39.8329 18.5246 40.0001 19.9996 40.0001C21.7683 40.0001 23.4806 39.759 25.1065 39.31V36.1591C25.1065 35.1326 26.4489 34.1319 26.4489 31.3388C26.449 30.7201 26.449 26.3488 26.449 24.7411C26.449 23.9712 25.819 23.3412 25.0491 23.3412Z" fill="#F9BA8F"/>
<path d="M15.8422 17.2581H16.5257C16.9183 17.2581 17.2394 17.5792 17.2394 17.9717V19.2556C17.2394 19.6481 16.9183 19.9693 16.5257 19.9693H15.8422C15.4496 19.9693 15.1284 19.6481 15.1284 19.2556V17.9717C15.1284 17.5792 15.4496 17.2581 15.8422 17.2581Z" fill="#E9EFFF"/>
<path d="M14.0129 29.523C14.4027 29.523 14.7187 29.207 14.7187 28.8172V26.5066C14.7187 26.6599 14.5919 26.7827 14.4388 26.7771C14.1369 26.7661 13.7107 26.7564 13.3072 26.9995V28.8172C13.3072 29.207 13.6232 29.523 14.0129 29.523Z" fill="#FCAD6D"/>
<path d="M25.564 2.97571H16.3472C16.0087 2.97571 15.7345 2.70141 15.7345 2.36298C15.7345 2.02454 16.0088 1.75024 16.3472 1.75024H25.564C25.9024 1.75024 26.1767 2.02454 26.1767 2.36298C26.1767 2.70134 25.9023 2.97571 25.564 2.97571Z" fill="#3C58A0"/>
<path d="M33.0512 2.97571H32.2525C31.9141 2.97571 31.6398 2.70141 31.6398 2.36298C31.6398 2.02454 31.9141 1.75024 32.2525 1.75024H33.0512C33.3896 1.75024 33.6639 2.02454 33.6639 2.36298C33.6639 2.70134 33.3895 2.97571 33.0512 2.97571Z" fill="#3C58A0"/>
<path d="M30.2744 2.97571H29.4757C29.1373 2.97571 28.863 2.70141 28.863 2.36298C28.863 2.02454 29.1373 1.75024 29.4757 1.75024H30.2744C30.6128 1.75024 30.8871 2.02454 30.8871 2.36298C30.8871 2.70134 30.6127 2.97571 30.2744 2.97571Z" fill="#3C58A0"/>
<path d="M25.1069 36.1592C20.0629 40.2086 15.7098 36.7496 15.7098 36.7496V39.5171C17.0891 39.8329 18.5251 40.0001 20 40.0001C21.7688 40.0001 23.4811 39.759 25.1069 39.31V36.1592Z" fill="#FCAD6D"/>
</svg>
