<svg width="40" height="40" viewBox="0 0 40 40" fill="none" xmlns="http://www.w3.org/2000/svg">
<path d="M2.25435 26.3252C5.09552 33.3361 11.9695 38.2817 19.9997 38.2817C28.0298 38.2817 34.9037 33.3361 37.745 26.3252H2.25435Z" fill="#1C2E7A"/>
<path d="M37.9957 24.5117H2.00524C1.87055 24.5117 1.73946 24.4965 1.61313 24.4684C1.81086 25.1514 2.04438 25.8194 2.31368 26.4688C2.4075 26.4766 2.50211 26.4816 2.59797 26.4816H37.4028C37.4987 26.4816 37.5933 26.4766 37.6871 26.4688C37.9565 25.8194 38.1899 25.1515 38.3877 24.4684C38.2615 24.4965 38.1303 24.5117 37.9957 24.5117Z" fill="#E9EFFF"/>
<path d="M21.195 24.5117H2.00524C1.87055 24.5117 1.73946 24.4965 1.61313 24.4684C1.81086 25.1514 2.04438 25.8194 2.31368 26.4688C2.4075 26.4766 2.50211 26.4816 2.59797 26.4816H21.195V24.5117Z" fill="#BEC8F7"/>
<path d="M37.4025 24.1649C38.0036 24.1649 38.4927 23.6759 38.4927 23.0749V14.1885C38.4583 14.0598 38.4223 13.9309 38.3853 13.8017C36.0739 5.82883 28.7181 0 20.0001 0C11.2817 0 3.92557 5.82938 1.61455 13.8027C1.57768 13.9315 1.54182 14.0602 1.50752 14.1885V14.1886V23.075C1.50752 23.6761 1.99659 24.165 2.5976 24.165H37.4025V24.1649Z" fill="#FF4155"/>
<path d="M21.2531 23.9653L22.1214 21.7487C22.2051 21.5352 22.2 21.2962 22.104 21.088C21.727 20.2703 21.8819 19.602 22.1167 19.1494C22.3106 18.7757 22.1919 18.3169 21.8489 18.0726C20.0998 16.8268 20.5578 14.7961 20.8088 14.0383C20.8762 13.8351 20.8622 13.6138 20.7727 13.4194L18.743 9.01232C18.6824 8.8806 18.5875 8.76826 18.4716 8.68123C17.2381 7.75529 17.4745 6.44521 17.768 5.67646C17.9063 5.31427 17.7892 4.90412 17.4747 4.67748C15.7442 3.43029 16.1225 1.73365 16.4884 0.853179C16.5613 0.67771 16.5728 0.489272 16.53 0.314819C9.37541 1.62513 3.61143 6.9131 1.61455 13.8027C1.57768 13.9315 1.54182 14.0601 1.50752 14.1885V14.1886V23.075C1.50752 23.6761 1.99659 24.165 2.5976 24.165H21.2027C21.2117 24.0967 21.228 24.0296 21.2531 23.9653Z" fill="#E80054"/>
<path d="M37.8335 12.1759V23.0749C37.8335 23.3126 37.6401 23.5059 37.4025 23.5059H2.59757C2.35983 23.5059 2.16647 23.3125 2.16647 23.0749V12.176C1.3228 14.3345 0.859207 16.6835 0.859207 19.1408C0.859207 21.0127 1.12913 22.8213 1.63007 24.5311C1.90741 24.716 2.24007 24.8239 2.59757 24.8239H37.4024C37.7599 24.8239 38.0926 24.7159 38.3699 24.531C38.8708 22.8212 39.1407 21.0126 39.1407 19.1407C39.1408 16.6834 38.6772 14.3344 37.8335 12.1759Z" fill="#FF7186"/>
<path d="M2.59757 23.5059C2.35991 23.5059 2.16647 23.3125 2.16647 23.0749V12.176C1.3228 14.3345 0.859207 16.6834 0.859207 19.1409C0.859207 21.0127 1.12913 22.8213 1.63007 24.5312C1.90741 24.716 2.24007 24.824 2.59757 24.824H21.1945V24.2755C21.1945 24.1694 21.2144 24.0642 21.2531 23.9653L21.4331 23.5059H2.59757V23.5059Z" fill="#FF4155"/>
<path d="M20.0005 18.9969C23.9261 18.9969 27.1085 15.8145 27.1085 11.8888C27.1085 7.96314 23.9261 4.78076 20.0005 4.78076C16.0748 4.78076 12.8924 7.96314 12.8924 11.8888C12.8924 15.8145 16.0748 18.9969 20.0005 18.9969Z" fill="#E9EFFF"/>
<path d="M21.8494 18.0725C20.1002 16.8267 20.5583 14.796 20.8093 14.0382C20.8767 13.835 20.8627 13.6138 20.7731 13.4193L18.7435 9.01227C18.6828 8.88055 18.588 8.7682 18.472 8.68117C17.2385 7.75523 17.4749 6.44516 17.7685 5.67641C17.837 5.49687 17.8427 5.3057 17.7928 5.13086C14.9481 6.05961 12.8925 8.73391 12.8925 11.8888C12.8925 15.8145 16.0749 18.9969 20.0006 18.9969C20.7688 18.9969 21.5082 18.8745 22.2013 18.6491C22.1689 18.4238 22.0463 18.2127 21.8494 18.0725Z" fill="#D3DCFB"/>
<path d="M22.6711 12.621L19.1998 14.8403C18.6212 15.2102 17.8623 14.7947 17.8623 14.1079V9.6693C17.8623 8.98251 18.6212 8.56696 19.1998 8.93688L22.6711 11.1562C23.2059 11.4981 23.2059 12.2791 22.6711 12.621Z" fill="#FF4155"/>
<path d="M19.5952 9.92919V11.3345C19.5952 12.0212 20.3541 12.4369 20.9328 12.0669L22.5142 11.0559L22.6712 11.1563C23.2059 11.4982 23.2059 12.2793 22.6712 12.6211L19.1998 14.8404C18.6212 15.2104 17.8623 14.7948 17.8623 14.108V9.66943C17.8623 8.98263 18.6212 8.56708 19.1998 8.93701L19.6863 9.24802C19.6277 9.46216 19.5952 9.68982 19.5952 9.92919Z" fill="#E80054"/>
<path d="M23.9631 29.1497L23.9653 29.1477C23.9524 29.1456 23.9733 29.1493 23.9222 29.1414L23.921 29.1421C23.5123 29.0831 22.8851 29.2265 22.2589 28.8615C21.9795 29.2822 21.651 29.6122 21.3446 29.85C20.9604 30.1484 20.4863 30.3104 19.998 30.3104C19.5097 30.3104 19.0356 30.1484 18.6513 29.85C18.3453 29.6123 18.017 29.2825 17.7377 28.8622C17.1307 29.2179 16.5331 29.0838 16.11 29.1377C16.11 29.1377 16.1099 29.1375 16.1098 29.1374C16.0594 29.1442 16.0534 29.144 16.0309 29.1477L16.0346 29.1511C15.1846 29.3029 14.5549 30.0671 14.5549 30.9528V33.3548C14.5549 33.712 14.8444 34.0015 15.2016 34.0015H24.7944C25.1516 34.0015 25.4411 33.712 25.4411 33.3548V30.9528C25.4412 30.0673 24.8125 29.3019 23.9631 29.1497Z" fill="#73C3F9"/>
<path d="M16.5583 31.9803C16.5583 31.3385 16.9601 30.7721 17.5585 30.5398C18.0242 30.3589 18.402 30.1332 18.7089 29.8908C18.6899 29.877 18.67 29.8643 18.6514 29.8499C18.3453 29.6121 18.017 29.2824 17.7378 28.8621C17.1308 29.2177 16.5332 29.0836 16.1101 29.1375C16.1101 29.1375 16.1099 29.1373 16.1099 29.1372C16.0595 29.144 16.0535 29.1439 16.031 29.1475L16.0347 29.1509C15.1847 29.3027 14.5549 30.0668 14.5549 30.9526V33.3546C14.5549 33.7118 14.8445 34.0014 15.2017 34.0014H16.5584V31.9803H16.5583Z" fill="#4FABF7"/>
<path d="M17.6647 28.9026C17.9586 29.378 18.3183 29.746 18.6516 30.0049C19.0358 30.3032 19.51 30.4653 19.9983 30.4653C20.4865 30.4653 20.9607 30.3032 21.3449 30.0049C21.6785 29.7458 22.0383 29.3775 22.3325 28.9018C22.16 28.8118 21.9869 28.6856 21.8179 28.5077L21.8187 28.5067C21.5326 28.2058 21.4603 27.9642 21.2503 27.5978C20.4779 28.0024 19.5404 28.0137 18.7463 27.5978C18.5256 27.9829 18.4588 28.2113 18.1779 28.5067L18.1787 28.5077C18.0086 28.6867 17.836 28.8129 17.6647 28.9026Z" fill="#FCAD6D"/>
<path d="M18.1779 28.5067L18.1787 28.5077C18.0086 28.6867 17.836 28.813 17.6647 28.9027C17.9457 29.3571 18.2864 29.7122 18.6071 29.9688C19.8138 29.0766 19.9982 27.9054 19.9982 27.9054L19.9979 27.9053C19.5705 27.9054 19.1407 27.8044 18.7463 27.5978C18.5256 27.9829 18.4588 28.2113 18.1779 28.5067Z" fill="#FD995B"/>
<path d="M19.4884 20.5105C17.9579 20.719 17.8124 21.5869 17.8117 21.9052C17.8115 21.972 17.7746 22.0339 17.7145 22.063C16.9183 22.4504 17.3476 24.3169 17.3476 24.3169C17.4276 24.3222 17.5475 24.3909 17.6099 24.4211C17.6252 24.326 17.6501 24.2323 17.6854 24.1418C17.7122 24.0728 17.7458 24.0031 17.7877 23.9373C17.8605 23.8231 17.8936 23.6883 17.8838 23.5536C17.8552 23.1643 17.8327 22.4332 18.3468 22.2019C18.7822 22.0059 19.3164 22.1194 19.6571 22.2326C19.8783 22.3062 20.1179 22.3062 20.3392 22.2326C20.6798 22.1194 21.214 22.0059 21.6495 22.2019C22.1621 22.4325 22.141 23.1598 22.1127 23.5503C22.1028 23.6861 22.1351 23.8222 22.2085 23.9372C22.2518 24.0052 22.2861 24.0772 22.3134 24.1484C22.3473 24.2368 22.3714 24.3283 22.3863 24.4211C22.465 24.3829 22.6136 24.3052 22.7098 24.3188C22.7216 23.9107 22.7593 23.4707 22.7593 23.4707C23.2128 21.2493 21.1364 20.286 19.4884 20.5105Z" fill="#A05838"/>
<path d="M20.0071 20.4796C19.8318 20.4775 19.6579 20.4874 19.4884 20.5104C17.9579 20.7189 17.8124 21.5868 17.8117 21.9051C17.8115 21.9719 17.7746 22.0338 17.7145 22.0629C16.9183 22.4502 17.3476 24.3168 17.3476 24.3168C17.4276 24.3221 17.5475 24.3908 17.6099 24.421C17.6252 24.3259 17.6501 24.2322 17.6854 24.1417C17.7122 24.0727 17.7458 24.003 17.7877 23.9372C17.8605 23.823 17.8936 23.6882 17.8838 23.5535C17.8552 23.1642 17.8327 22.4331 18.3468 22.2018C18.7822 22.0058 19.3164 22.1193 19.6571 22.2325C19.7026 22.2477 19.7491 22.2589 19.7958 22.2678C19.7839 22.241 19.7711 22.2141 19.7564 22.1874C19.2234 21.2217 19.7329 20.6825 20.0071 20.4796Z" fill="#823C26"/>
<path d="M22.8456 24.3719C22.7264 24.2627 22.4889 24.3181 22.3862 24.385C22.4087 24.5251 22.41 24.6683 22.3906 24.8098L22.2694 25.6922C22.2694 25.7633 22.2672 25.8332 22.2631 25.9017C22.5586 25.9908 22.7053 25.7256 22.73 25.5436C22.7407 25.4652 22.7581 25.388 22.7822 25.3126C22.8607 25.0672 23.1443 24.6457 22.8456 24.3719Z" fill="#FD995B"/>
<path d="M17.1504 24.3719C17.2696 24.2627 17.507 24.3181 17.6097 24.385C17.5872 24.5251 17.5859 24.6683 17.6053 24.8098L17.7265 25.6922C17.7265 25.7633 17.7287 25.8332 17.7328 25.9017C17.4373 25.9908 17.2906 25.7256 17.2658 25.5436C17.2552 25.4652 17.2378 25.388 17.2136 25.3126C17.1352 25.0672 16.8517 24.6457 17.1504 24.3719Z" fill="#FD995B"/>
<path d="M22.35 24.1125C22.3228 24.0413 22.2884 23.9693 22.2451 23.9013C22.1718 23.7862 22.1395 23.65 22.1493 23.5143C22.1776 23.1239 22.1625 22.3603 21.6499 22.1296C21.2144 21.9337 20.6803 22.0471 20.3397 22.1604C20.1184 22.234 19.8787 22.234 19.6575 22.1604C19.3168 22.0471 18.7827 21.9337 18.3472 22.1296C17.8333 22.3609 17.8194 23.1282 17.848 23.5177C17.8579 23.6524 17.8247 23.7871 17.7519 23.9014C17.71 23.9672 17.6764 24.0368 17.6496 24.1058C17.5625 24.3296 17.5371 24.5721 17.5697 24.8097L17.6909 25.6924C17.6909 26.9613 18.3683 27.8237 18.9444 28.2711C19.2452 28.5047 19.6163 28.6315 19.9986 28.6315C20.3808 28.6315 20.7519 28.5047 21.0526 28.2711C21.6288 27.8237 22.3061 26.9612 22.3061 25.6924L22.4273 24.81C22.4596 24.5746 22.4351 24.3344 22.35 24.1125Z" fill="#F9BA8F"/>
<path d="M20.456 28.2711C19.8798 27.8237 19.2025 26.9612 19.2025 25.6923L19.0813 24.8098C19.0487 24.5722 19.074 24.3295 19.1612 24.1059C19.188 24.0369 19.2215 23.9672 19.2635 23.9014C19.3363 23.7872 19.3695 23.6524 19.3596 23.5177C19.333 23.1561 19.3436 22.4693 19.7568 22.1878C19.7233 22.1802 19.6901 22.1714 19.6574 22.1605C19.3168 22.0473 18.7826 21.9338 18.3472 22.1298C17.8332 22.361 17.8194 23.1284 17.8479 23.5178C17.8579 23.6525 17.8247 23.7873 17.7519 23.9015C17.7099 23.9673 17.6763 24.037 17.6495 24.1059C17.5624 24.3297 17.537 24.5723 17.5697 24.8098L17.6908 25.6924C17.6908 26.9613 18.3682 27.8238 18.9444 28.2712C19.2451 28.5047 19.6162 28.6316 19.9985 28.6316C20.2624 28.6316 20.5204 28.5698 20.7543 28.4555C20.6495 28.4041 20.549 28.3434 20.456 28.2711Z" fill="#FCAD6D"/>
<path d="M22.7859 32.0244V34.0014H24.1037C24.1037 34.0014 23.9894 32.3063 23.2567 31.7791C23.0602 31.6377 22.7859 31.7824 22.7859 32.0244Z" fill="#4FABF7"/>
<path d="M34.8464 29.1472L34.8486 29.1453C34.8357 29.1431 34.8566 29.1468 34.8055 29.1389L34.8043 29.1396C34.3956 29.0807 33.7685 29.2241 33.1422 28.859C32.8628 29.2797 32.5343 29.6097 32.228 29.8476C31.8437 30.146 31.3696 30.308 30.8813 30.308C30.393 30.308 29.9189 30.146 29.5347 29.8476C29.2286 29.6099 28.9002 29.2801 28.6209 28.8598C28.014 29.2154 27.4164 29.0814 26.9933 29.1353L26.993 29.1349C26.9426 29.1417 26.9366 29.1416 26.9141 29.1453L26.9178 29.1486C26.0678 29.3004 25.438 30.0646 25.438 30.9503V33.3524C25.438 33.7096 25.7276 33.9991 26.0848 33.9991H35.6776C36.0348 33.9991 36.3243 33.7096 36.3243 33.3524V30.9503C36.3245 30.0649 35.6957 29.2996 34.8464 29.1472Z" fill="#73C3F9"/>
<path d="M27.4416 31.978C27.4416 31.3361 27.8434 30.7699 28.4418 30.5375C28.9075 30.3566 29.2853 30.131 29.5923 29.8885C29.5732 29.8747 29.5534 29.862 29.5348 29.8476C29.2287 29.6098 28.9003 29.2801 28.621 28.8597C28.0141 29.2154 27.4164 29.0813 26.9934 29.1352L26.9931 29.1349C26.9427 29.1417 26.9367 29.1415 26.9142 29.1453L26.9179 29.1486C26.0679 29.3004 25.4381 30.0646 25.4381 30.9504V33.3524C25.4381 33.7096 25.7277 33.9991 26.0848 33.9991H27.4416V31.978H27.4416Z" fill="#4FABF7"/>
<path d="M28.5481 28.9002C28.8421 29.3756 29.2018 29.7435 29.5352 30.0024C29.9194 30.3008 30.3935 30.4628 30.8818 30.4628C31.3701 30.4628 31.8442 30.3008 32.2285 30.0024C32.562 29.7434 32.9219 29.3751 33.216 28.8992C33.0435 28.8093 32.8705 28.6831 32.7014 28.5053L32.7023 28.5042C32.4161 28.2034 32.3438 27.9617 32.1338 27.5953C31.3614 27.9999 30.4239 28.0113 29.6299 27.5953C29.4092 27.9804 29.3424 28.2089 29.0614 28.5042L29.0623 28.5053C28.892 28.6842 28.7195 28.8105 28.5481 28.9002Z" fill="#FCAD6D"/>
<path d="M29.0613 28.5042L29.0622 28.5052C28.892 28.6842 28.7195 28.8105 28.5481 28.9001C28.8292 29.3545 29.1699 29.7096 29.4906 29.9662C30.6973 29.074 30.8817 27.9029 30.8817 27.9029L30.8814 27.9027C30.454 27.9028 30.0242 27.8019 29.6298 27.5952C29.4091 27.9804 29.3423 28.2088 29.0613 28.5042Z" fill="#FD995B"/>
<path d="M30.3719 20.5082C28.8413 20.7167 28.6959 21.5845 28.6952 21.9029C28.695 21.9697 28.6581 22.0316 28.598 22.0608C27.8018 22.448 28.2311 24.3147 28.2311 24.3147C28.311 24.32 28.4309 24.3887 28.4934 24.4189C28.5087 24.3237 28.5336 24.2302 28.5688 24.1396C28.5957 24.0706 28.6292 24.0009 28.6712 23.9352C28.744 23.8209 28.7772 23.6862 28.7673 23.5515C28.7387 23.1621 28.7162 22.431 29.2302 22.1997C29.6657 22.0038 30.1998 22.1172 30.5405 22.2305C30.7618 22.3041 31.0014 22.3041 31.2227 22.2305C31.5633 22.1172 32.0975 22.0038 32.533 22.1997C33.0455 22.4303 33.0244 23.1577 32.9962 23.5481C32.9863 23.6838 33.0186 23.82 33.092 23.9351C33.1352 24.003 33.1696 24.0751 33.1969 24.1462C33.2308 24.2347 33.2549 24.3261 33.2698 24.4189C33.3484 24.3808 33.4971 24.303 33.5933 24.3166C33.6051 23.9084 33.6427 23.4684 33.6427 23.4684C34.0963 21.247 32.0198 20.2837 30.3719 20.5082Z" fill="#A05838"/>
<path d="M30.8905 20.4776C30.7152 20.4755 30.5413 20.4853 30.3718 20.5084C28.8412 20.7169 28.6958 21.5847 28.6951 21.903C28.6949 21.9698 28.658 22.0317 28.5979 22.0609C27.8017 22.4482 28.231 24.3148 28.231 24.3148C28.3109 24.3201 28.4309 24.3888 28.4933 24.419C28.5086 24.324 28.5335 24.2303 28.5687 24.1398C28.5956 24.0708 28.6291 24.0011 28.6711 23.9353C28.7439 23.8211 28.777 23.6863 28.7672 23.5516C28.7386 23.1623 28.7161 22.4312 29.2302 22.1998C29.6656 22.0039 30.1998 22.1173 30.5405 22.2306C30.586 22.2458 30.6324 22.257 30.6792 22.2659C30.6673 22.2391 30.6545 22.2122 30.6398 22.1855C30.1069 21.2196 30.6163 20.6804 30.8905 20.4776Z" fill="#823C26"/>
<path d="M33.7289 24.3696C33.6097 24.2604 33.3722 24.3158 33.2695 24.3827C33.292 24.5227 33.2932 24.666 33.2739 24.8075L33.1527 25.6899C33.1527 25.761 33.1504 25.8309 33.1464 25.8994C33.4418 25.9885 33.5886 25.7233 33.6133 25.5413C33.6239 25.4629 33.6414 25.3856 33.6655 25.3103C33.744 25.0649 34.0275 24.6434 33.7289 24.3696Z" fill="#FD995B"/>
<path d="M28.0339 24.3696C28.1531 24.2604 28.3905 24.3158 28.4932 24.3827C28.4707 24.5227 28.4695 24.666 28.4889 24.8075L28.61 25.6899C28.61 25.761 28.6123 25.8309 28.6164 25.8994C28.3209 25.9885 28.1742 25.7233 28.1494 25.5413C28.1388 25.4629 28.1214 25.3856 28.0972 25.3103C28.0187 25.0649 27.7352 24.6434 28.0339 24.3696Z" fill="#FD995B"/>
<path d="M33.2324 24.11C33.2051 24.0388 33.1707 23.9668 33.1274 23.8988C33.054 23.7838 33.0217 23.6476 33.0316 23.5119C33.0599 23.1214 33.0447 22.3578 32.5321 22.1272C32.0967 21.9313 31.5625 22.0447 31.2219 22.158C31.0006 22.2316 30.761 22.2316 30.5397 22.158C30.1991 22.0447 29.6649 21.9313 29.2295 22.1272C28.7155 22.3585 28.7017 23.1258 28.7303 23.5153C28.7402 23.6499 28.707 23.7847 28.6342 23.8989C28.5922 23.9648 28.5586 24.0344 28.5318 24.1034C28.4447 24.3271 28.4193 24.5698 28.452 24.8073L28.5731 25.6899C28.5731 26.9589 29.2505 27.8213 29.8267 28.2687C30.1274 28.5022 30.4985 28.6291 30.8808 28.6291C31.2631 28.6291 31.6342 28.5022 31.9349 28.2687C32.5111 27.8213 33.1885 26.9588 33.1885 25.6899L33.3096 24.8075C33.342 24.5722 33.3174 24.332 33.2324 24.11Z" fill="#F9BA8F"/>
<path d="M31.3383 28.2687C30.7621 27.8213 30.0848 26.9588 30.0848 25.69L29.9636 24.8073C29.931 24.5698 29.9563 24.3271 30.0435 24.1034C30.0703 24.0344 30.1038 23.9648 30.1458 23.899C30.2186 23.7848 30.2518 23.65 30.2419 23.5153C30.2153 23.1537 30.226 22.4669 30.6391 22.1854C30.6056 22.1777 30.5724 22.169 30.5397 22.1581C30.1991 22.0448 29.6649 21.9314 29.2295 22.1273C28.7155 22.3586 28.7017 23.1259 28.7303 23.5154C28.7402 23.6501 28.707 23.7848 28.6342 23.899C28.5922 23.9649 28.5586 24.0346 28.5318 24.1035C28.4447 24.3272 28.4193 24.5699 28.452 24.8074L28.5731 25.6901C28.5731 26.959 29.2505 27.8214 29.8267 28.2688C30.1274 28.5023 30.4985 28.6292 30.8808 28.6292C31.1447 28.6292 31.4027 28.5674 31.6366 28.4531C31.5318 28.4018 31.4313 28.341 31.3383 28.2687Z" fill="#FCAD6D"/>
<path d="M33.6692 32.0221V33.999H34.9869C34.9869 33.999 34.8726 32.3039 34.14 31.7767C33.9436 31.6354 33.6692 31.7801 33.6692 32.0221Z" fill="#4FABF7"/>
<path d="M13.0834 29.1497L13.0856 29.1477C13.0727 29.1456 13.0937 29.1493 13.0426 29.1414L13.0414 29.1421C12.6327 29.0831 12.0055 29.2265 11.3793 28.8615C11.0999 29.2822 10.7714 29.6122 10.4651 29.85C10.0809 30.1484 9.60672 30.3104 9.11844 30.3104C8.63016 30.3104 8.15601 30.1484 7.7718 29.85C7.4657 29.6123 7.13734 29.2825 6.85805 28.8622C6.25109 29.2179 5.65344 29.0838 5.23039 29.1377C5.23039 29.1377 5.23023 29.1375 5.23016 29.1374C5.17976 29.1442 5.17375 29.144 5.15125 29.1477L5.15492 29.1511C4.30492 29.3029 3.67516 30.0671 3.67516 30.9528V33.3548C3.67516 33.712 3.96469 34.0015 4.32187 34.0015H13.9147C14.2719 34.0015 14.5614 33.712 14.5614 33.3548V30.9528C14.5616 30.0673 13.9328 29.3019 13.0834 29.1497Z" fill="#73C3F9"/>
<path d="M5.67875 31.9803C5.67875 31.3385 6.08055 30.7721 6.67891 30.5398C7.14461 30.3589 7.52243 30.1332 7.82938 29.8908C7.81032 29.877 7.79047 29.8643 7.77188 29.8499C7.46579 29.6121 7.13743 29.2824 6.85813 28.8621C6.25118 29.2177 5.65352 29.0836 5.23047 29.1375C5.23047 29.1375 5.23032 29.1373 5.23024 29.1372C5.17985 29.144 5.17383 29.1439 5.15133 29.1475L5.15501 29.1509C4.30501 29.3027 3.67524 30.0668 3.67524 30.9526V33.3546C3.67524 33.7118 3.96477 34.0014 4.32196 34.0014H5.67868V31.9803H5.67875Z" fill="#4FABF7"/>
<path d="M6.78513 28.9026C7.07911 29.378 7.43872 29.746 7.77208 30.0049C8.1563 30.3032 8.63044 30.4653 9.11872 30.4653C9.607 30.4653 10.0811 30.3032 10.4654 30.0049C10.799 29.7458 11.1588 29.3775 11.4529 28.9018C11.2804 28.8118 11.1074 28.6856 10.9383 28.5077L10.9392 28.5067C10.653 28.2058 10.5807 27.9642 10.3708 27.5978C9.59833 28.0024 8.66083 28.0137 7.86677 27.5978C7.64606 27.9829 7.57927 28.2113 7.29833 28.5067L7.29919 28.5077C7.12903 28.6867 6.95638 28.8129 6.78513 28.9026Z" fill="#FCAD6D"/>
<path d="M7.29833 28.5067L7.29919 28.5077C7.12903 28.6867 6.95645 28.813 6.78513 28.9027C7.06614 29.3571 7.40684 29.7122 7.72755 29.9688C8.93427 29.0766 9.11872 27.9054 9.11872 27.9054L9.11841 27.9053C8.69098 27.9054 8.26114 27.8044 7.86677 27.5978C7.64606 27.9829 7.57927 28.2113 7.29833 28.5067Z" fill="#FD995B"/>
<path d="M8.60892 20.5105C7.07837 20.719 6.9329 21.5869 6.9322 21.9052C6.93204 21.972 6.89509 22.0339 6.83501 22.063C6.03884 22.4504 6.46814 24.3169 6.46814 24.3169C6.54806 24.3222 6.66798 24.3909 6.7304 24.4211C6.74571 24.326 6.77064 24.2323 6.80587 24.1418C6.83275 24.0728 6.86626 24.0031 6.90821 23.9373C6.98103 23.8231 7.01415 23.6883 7.00431 23.5536C6.97572 23.1643 6.95322 22.4332 7.46728 22.2019C7.90275 22.0059 8.43689 22.1194 8.77759 22.2326C8.99884 22.3062 9.23845 22.3062 9.4597 22.2326C9.80033 22.1194 10.3345 22.0059 10.7699 22.2019C11.2825 22.4325 11.2614 23.1598 11.2331 23.5503C11.2233 23.6861 11.2556 23.8222 11.3289 23.9372C11.3722 24.0052 11.4066 24.0772 11.4339 24.1484C11.4678 24.2368 11.492 24.3283 11.5068 24.4211C11.5855 24.3829 11.7342 24.3052 11.8303 24.3188C11.8421 23.9107 11.8798 23.4707 11.8798 23.4707C12.3335 21.2493 10.2569 20.286 8.60892 20.5105Z" fill="#A05838"/>
<path d="M9.12691 20.4796C8.95168 20.4775 8.77761 20.4874 8.60824 20.5104C7.07769 20.7189 6.93222 21.5868 6.93152 21.9051C6.93136 21.9719 6.89441 22.0338 6.83433 22.0629C6.03824 22.4502 6.46746 24.3168 6.46746 24.3168C6.54738 24.3221 6.6673 24.3908 6.72972 24.421C6.74504 24.3259 6.76996 24.2322 6.80519 24.1417C6.83207 24.0727 6.86558 24.003 6.90753 23.9372C6.98035 23.823 7.01347 23.6882 7.00363 23.5535C6.97504 23.1642 6.95254 22.4331 7.4666 22.2018C7.90207 22.0058 8.43621 22.1193 8.77691 22.2325C8.82246 22.2477 8.86886 22.2589 8.91566 22.2678C8.90371 22.241 8.89089 22.2141 8.87613 22.1874C8.34324 21.2217 8.85269 20.6825 9.12691 20.4796Z" fill="#823C26"/>
<path d="M11.966 24.3719C11.8468 24.2627 11.6093 24.3181 11.5066 24.385C11.5291 24.5251 11.5303 24.6683 11.5109 24.8098L11.3897 25.6922C11.3897 25.7633 11.3875 25.8332 11.3834 25.9017C11.6789 25.9908 11.8256 25.7256 11.8503 25.5436C11.861 25.4652 11.8784 25.388 11.9025 25.3126C11.9811 25.0672 12.2646 24.6457 11.966 24.3719Z" fill="#FD995B"/>
<path d="M6.27129 24.3719C6.39051 24.2627 6.62793 24.3181 6.73067 24.385C6.70817 24.5251 6.70692 24.6683 6.72629 24.8098L6.84746 25.6922C6.84746 25.7633 6.84973 25.8332 6.85379 25.9017C6.55832 25.9908 6.4116 25.7256 6.38684 25.5436C6.37621 25.4652 6.35879 25.388 6.33465 25.3126C6.25606 25.0672 5.97254 24.6457 6.27129 24.3719Z" fill="#FD995B"/>
<path d="M11.4705 24.1125C11.4432 24.0413 11.4089 23.9693 11.3655 23.9013C11.2922 23.7862 11.2599 23.65 11.2697 23.5143C11.298 23.1239 11.2829 22.3603 10.7703 22.1296C10.3348 21.9337 9.80067 22.0471 9.46005 22.1604C9.2388 22.234 8.99911 22.234 8.77786 22.1604C8.43723 22.0471 7.90309 21.9337 7.46763 22.1296C6.95364 22.3609 6.93982 23.1282 6.96841 23.5177C6.97833 23.6524 6.94513 23.7871 6.87232 23.9014C6.83036 23.9672 6.79677 24.0368 6.76997 24.1058C6.68286 24.3296 6.65747 24.5721 6.69013 24.8097L6.8113 25.6924C6.8113 26.9613 7.48864 27.8237 8.06481 28.2711C8.36552 28.5047 8.73669 28.6315 9.11895 28.6315C9.50122 28.6315 9.87231 28.5047 10.173 28.2711C10.7492 27.8237 11.4265 26.9612 11.4265 25.6924L11.5477 24.81C11.58 24.5746 11.5556 24.3344 11.4705 24.1125Z" fill="#F9BA8F"/>
<path d="M9.57637 28.2711C9.0002 27.8237 8.32286 26.9612 8.32286 25.6923L8.20168 24.8098C8.16903 24.5722 8.1945 24.3295 8.28153 24.1059C8.3084 24.0369 8.34192 23.9672 8.38387 23.9014C8.45668 23.7872 8.48981 23.6524 8.47997 23.5177C8.4534 23.1561 8.46403 22.4693 8.87715 22.1878C8.84372 22.1802 8.81051 22.1714 8.77778 22.1605C8.43715 22.0473 7.90301 21.9338 7.46754 22.1298C6.95356 22.361 6.93973 23.1284 6.96833 23.5178C6.97825 23.6525 6.94504 23.7873 6.87223 23.9015C6.83028 23.9673 6.79668 24.037 6.76989 24.1059C6.68278 24.3297 6.65739 24.5723 6.69004 24.8098L6.81122 25.6924C6.81122 26.9613 7.48856 27.8238 8.06473 28.2712C8.36543 28.5047 8.73661 28.6316 9.11887 28.6316C9.38278 28.6316 9.64083 28.5698 9.87465 28.4555C9.76997 28.4041 9.6695 28.3434 9.57637 28.2711Z" fill="#FCAD6D"/>
<path d="M11.9063 32.0244V34.0014H13.224C13.224 34.0014 13.1097 32.3063 12.3771 31.7791C12.1807 31.6377 11.9063 31.7824 11.9063 32.0244Z" fill="#4FABF7"/>
<path d="M18.4454 35.1481L18.4476 35.1461C18.4347 35.144 18.4556 35.1477 18.4045 35.1398L18.4034 35.1405C17.9947 35.0815 17.3675 35.2249 16.7413 34.8599C16.4619 35.2806 16.1334 35.6106 15.827 35.8485C15.4428 36.1468 14.9687 36.3089 14.4804 36.3089C13.992 36.3089 13.518 36.1468 13.1338 35.8485C12.8277 35.6107 12.4993 35.281 12.22 34.8606C11.6131 35.2163 11.0155 35.0822 10.5923 35.1361C10.5923 35.1361 10.5922 35.1359 10.5921 35.1358C10.5417 35.1426 10.5357 35.1424 10.5132 35.1461L10.517 35.1495C9.66696 35.3013 9.03719 36.0654 9.03719 36.9512V39.3533C9.03719 39.7104 9.32672 40 9.68391 40H19.2768C19.634 40 19.9235 39.7104 19.9235 39.3533V36.9512C19.9235 36.0658 19.2948 35.3004 18.4454 35.1481Z" fill="#73C3F9"/>
<path d="M11.0406 37.9789C11.0406 37.337 11.4424 36.7707 12.0408 36.5383C12.5065 36.3575 12.8843 36.1319 13.1913 35.8894C13.1722 35.8755 13.1524 35.8629 13.1338 35.8484C12.8277 35.6107 12.4993 35.2809 12.22 34.8606C11.6131 35.2162 11.0154 35.0822 10.5924 35.1361C10.5924 35.1361 10.5922 35.1358 10.5921 35.1358C10.5417 35.1426 10.5357 35.1424 10.5132 35.1461L10.517 35.1494C9.66696 35.3012 9.03719 36.0654 9.03719 36.9512V39.3532C9.03719 39.7104 9.32673 39.9999 9.68391 39.9999H11.0406V37.9789Z" fill="#4FABF7"/>
<path d="M12.1471 34.9012C12.4411 35.3765 12.8008 35.7445 13.134 36.0034C13.5183 36.3018 13.9923 36.4638 14.4807 36.4638C14.969 36.4638 15.4431 36.3018 15.8273 36.0034C16.1609 35.7444 16.5208 35.3761 16.8149 34.9003C16.6424 34.8103 16.4693 34.6841 16.3003 34.5062L16.3011 34.5052C16.015 34.2044 15.9426 33.9627 15.7327 33.5963C14.9603 34.0009 14.0228 34.0123 13.2287 33.5963C13.008 33.9815 12.9412 34.2098 12.6603 34.5052L12.6611 34.5062C12.491 34.6851 12.3183 34.8115 12.1471 34.9012Z" fill="#FCAD6D"/>
<path d="M12.6602 34.5051L12.6611 34.5061C12.4909 34.6851 12.3183 34.8114 12.147 34.9011C12.428 35.3555 12.7687 35.7106 13.0894 35.9672C14.2961 35.075 14.4806 33.9038 14.4806 33.9038L14.4803 33.9037C14.0529 33.9038 13.6231 33.8028 13.2286 33.5962C13.008 33.9813 12.9412 34.2097 12.6602 34.5051Z" fill="#FD995B"/>
<path d="M13.9707 26.5091C12.4402 26.7176 12.2947 27.5854 12.294 27.9038C12.2939 27.9706 12.2569 28.0324 12.1968 28.0617C11.4007 28.4489 11.83 30.3156 11.83 30.3156C11.9099 30.3209 12.0298 30.3896 12.0922 30.4197C12.1075 30.3246 12.1325 30.231 12.1677 30.1404C12.1946 30.0714 12.2281 30.0017 12.27 29.936C12.3429 29.8217 12.376 29.687 12.3661 29.5523C12.3375 29.1628 12.315 28.4318 12.8291 28.2005C13.2646 28.0046 13.7987 28.118 14.1394 28.2313C14.3607 28.3049 14.6003 28.3049 14.8215 28.2313C15.1621 28.118 15.6964 28.0046 16.1318 28.2005C16.6443 28.4311 16.6232 29.1585 16.595 29.5489C16.5851 29.6847 16.6174 29.8208 16.6907 29.936C16.734 30.0039 16.7684 30.076 16.7957 30.1471C16.8296 30.2356 16.8537 30.327 16.8686 30.4198C16.9472 30.3817 17.0959 30.3039 17.1921 30.3175C17.2039 29.9094 17.2415 29.4694 17.2415 29.4694C17.6952 27.2478 15.6187 26.2845 13.9707 26.5091Z" fill="#A05838"/>
<path d="M14.4894 26.4783C14.3142 26.4762 14.1402 26.486 13.9707 26.5091C12.4402 26.7176 12.2947 27.5854 12.294 27.9038C12.2939 27.9706 12.2569 28.0324 12.1968 28.0617C11.4007 28.4489 11.83 30.3156 11.83 30.3156C11.9099 30.3209 12.0298 30.3895 12.0922 30.4197C12.1075 30.3246 12.1325 30.231 12.1677 30.1404C12.1946 30.0714 12.2281 30.0017 12.27 29.936C12.3428 29.8217 12.376 29.687 12.3661 29.5523C12.3375 29.1629 12.315 28.4317 12.8291 28.2005C13.2646 28.0046 13.7987 28.118 14.1394 28.2313C14.185 28.2464 14.2314 28.2577 14.2782 28.2666C14.2662 28.2397 14.2534 28.2128 14.2387 28.1861C13.7057 27.2204 14.2152 26.6811 14.4894 26.4783Z" fill="#823C26"/>
<path d="M17.3279 30.3702C17.2087 30.261 16.9713 30.3164 16.8686 30.3833C16.8911 30.5234 16.8924 30.6666 16.8729 30.8081L16.7518 31.6905C16.7518 31.7616 16.7495 31.8315 16.7454 31.9C17.0409 31.9891 17.1876 31.7239 17.2124 31.5419C17.223 31.4635 17.2404 31.3863 17.2646 31.3109C17.3431 31.0655 17.6266 30.644 17.3279 30.3702Z" fill="#FD995B"/>
<path d="M11.6327 30.3702C11.752 30.261 11.9894 30.3164 12.0921 30.3833C12.0696 30.5234 12.0684 30.6666 12.0877 30.8081L12.2089 31.6905C12.2089 31.7616 12.2112 31.8315 12.2152 31.9C11.9198 31.9891 11.773 31.7239 11.7483 31.5419C11.7377 31.4635 11.7202 31.3863 11.6961 31.3109C11.6176 31.0655 11.3341 30.644 11.6327 30.3702Z" fill="#FD995B"/>
<path d="M16.8325 30.1109C16.8052 30.0397 16.7708 29.9677 16.7275 29.8997C16.6541 29.7846 16.6218 29.6485 16.6317 29.5127C16.66 29.1223 16.6448 28.3587 16.1322 28.1281C15.6968 27.9321 15.1626 28.0456 14.822 28.1588C14.6008 28.2324 14.3611 28.2324 14.1398 28.1588C13.7992 28.0456 13.2651 27.9321 12.8296 28.1281C12.3156 28.3593 12.3018 29.1267 12.3304 29.5161C12.3403 29.6508 12.3071 29.7856 12.2343 29.8998C12.1923 29.9656 12.1587 30.0353 12.1319 30.1042C12.0448 30.328 12.0194 30.5706 12.0521 30.8081L12.1733 31.6908C12.1733 32.9597 12.8506 33.8221 13.4268 34.2696C13.7276 34.5031 14.0986 34.6299 14.4809 34.6299C14.8632 34.6299 15.2343 34.5031 15.5351 34.2696C16.1112 33.8221 16.7886 32.9596 16.7886 31.6908L16.9097 30.8084C16.942 30.5731 16.9175 30.3329 16.8325 30.1109Z" fill="#F9BA8F"/>
<path d="M14.9383 34.2695C14.3622 33.8221 13.6848 32.9596 13.6848 31.6907L13.5636 30.8081C13.531 30.5705 13.5565 30.3278 13.6435 30.1042C13.6704 30.0352 13.7039 29.9655 13.7458 29.8997C13.8186 29.7855 13.8518 29.6507 13.8419 29.516C13.8154 29.1544 13.826 28.4676 14.2391 28.1861C14.2057 28.1784 14.1725 28.1697 14.1397 28.1588C13.7991 28.0456 13.265 27.9321 12.8295 28.1281C12.3155 28.3593 12.3017 29.1267 12.3303 29.5161C12.3402 29.6508 12.307 29.7856 12.2342 29.8998C12.1922 29.9656 12.1586 30.0353 12.1318 30.1042C12.0447 30.328 12.0193 30.5706 12.052 30.8081L12.1732 31.6908C12.1732 32.9597 12.8505 33.8222 13.4267 34.2696C13.7275 34.5031 14.0986 34.63 14.4808 34.63C14.7447 34.63 15.0028 34.5682 15.2366 34.4539C15.1318 34.4025 15.0315 34.3418 14.9383 34.2695Z" fill="#FCAD6D"/>
<path d="M17.2683 38.0229V39.9999H18.586C18.586 39.9999 18.4717 38.3048 17.739 37.7776C17.5426 37.6362 17.2683 37.7809 17.2683 38.0229Z" fill="#4FABF7"/>
<path d="M29.3287 35.1457L29.3309 35.1437C29.318 35.1416 29.339 35.1452 29.2879 35.1373L29.2866 35.138C28.878 35.0791 28.2508 35.2225 27.6245 34.8574C27.3451 35.2781 27.0166 35.6081 26.7103 35.846C26.3261 36.1444 25.8519 36.3064 25.3636 36.3064C24.8754 36.3064 24.4012 36.1444 24.017 35.846C23.7109 35.6083 23.3826 35.2785 23.1033 34.8582C22.4963 35.2138 21.8987 35.0798 21.4756 35.1337C21.4756 35.1337 21.4754 35.1334 21.4754 35.1334C21.425 35.1402 21.419 35.14 21.3965 35.1437L21.4002 35.147C20.5502 35.2988 19.9204 36.063 19.9204 36.9488V39.3508C19.9204 39.708 20.21 39.9975 20.5672 39.9975H30.16C30.5172 39.9975 30.8067 39.708 30.8067 39.3508V36.9488C30.8068 36.0634 30.1781 35.298 29.3287 35.1457Z" fill="#73C3F9"/>
<path d="M21.924 37.9766C21.924 37.3347 22.3258 36.7684 22.9241 36.536C23.3898 36.3552 23.7676 36.1295 24.0746 35.887C24.0555 35.8732 24.0357 35.8605 24.0171 35.8461C23.711 35.6084 23.3826 35.2786 23.1033 34.8583C22.4964 35.2139 21.8987 35.0798 21.4757 35.1337C21.4757 35.1337 21.4755 35.1335 21.4755 35.1334C21.4251 35.1402 21.419 35.1401 21.3965 35.1437L21.4003 35.1471C20.5503 35.2989 19.9205 36.063 19.9205 36.9488V39.3509C19.9205 39.708 20.2101 39.9976 20.5673 39.9976H21.924V37.9766Z" fill="#4FABF7"/>
<path d="M23.0303 34.8987C23.3243 35.3741 23.684 35.742 24.0174 36.0009C24.4016 36.2992 24.8757 36.4613 25.364 36.4613C25.8523 36.4613 26.3264 36.2992 26.7106 36.0009C27.0442 35.7418 27.4041 35.3735 27.6982 34.8977C27.5257 34.8077 27.3527 34.6815 27.1836 34.5037L27.1845 34.5027C26.8983 34.2018 26.826 33.9602 26.616 33.5938C25.8436 33.9984 24.9061 34.0097 24.1121 33.5938C23.8914 33.9788 23.8246 34.2073 23.5436 34.5027L23.5445 34.5037C23.3742 34.6827 23.2017 34.809 23.0303 34.8987Z" fill="#FCAD6D"/>
<path d="M23.5435 34.5028L23.5444 34.5038C23.3742 34.6828 23.2017 34.8091 23.0303 34.8988C23.3114 35.3531 23.6521 35.7082 23.9728 35.9649C25.1795 35.0727 25.3639 33.9015 25.3639 33.9015L25.3636 33.9014C24.9362 33.9015 24.5064 33.8005 24.112 33.5939C23.8913 33.979 23.8245 34.2073 23.5435 34.5028Z" fill="#FD995B"/>
<path d="M24.8542 26.5066C23.3236 26.7151 23.1782 27.583 23.1775 27.9013C23.1773 27.9681 23.1404 28.03 23.0803 28.0592C22.2841 28.4465 22.7134 30.3131 22.7134 30.3131C22.7933 30.3184 22.9133 30.3871 22.9757 30.4172C22.991 30.3222 23.0159 30.2285 23.0511 30.1379C23.078 30.069 23.1115 29.9993 23.1535 29.9335C23.2263 29.8193 23.2594 29.6845 23.2496 29.5498C23.221 29.1604 23.1985 28.4294 23.7126 28.198C24.148 28.0021 24.6822 28.1155 25.0229 28.2288C25.2441 28.3024 25.4837 28.3024 25.705 28.2288C26.0456 28.1155 26.5798 28.0021 27.0153 28.198C27.5279 28.4287 27.5068 29.1561 27.4785 29.5465C27.4686 29.6822 27.5009 29.8183 27.5743 29.9334C27.6176 30.0014 27.652 30.0734 27.6793 30.1446C27.7132 30.233 27.7373 30.3244 27.7522 30.4172C27.8308 30.3791 27.9795 30.3014 28.0757 30.315C28.0875 29.9068 28.1251 29.4668 28.1251 29.4668C28.5786 27.2454 26.5022 26.2821 24.8542 26.5066Z" fill="#A05838"/>
<path d="M25.3729 26.476C25.1976 26.4739 25.0237 26.4837 24.8542 26.5068C23.3237 26.7153 23.1782 27.5831 23.1775 27.9015C23.1773 27.9682 23.1404 28.0301 23.0803 28.0593C22.2841 28.4466 22.7134 30.3132 22.7134 30.3132C22.7933 30.3186 22.9133 30.3872 22.9757 30.4175C22.991 30.3224 23.0159 30.2287 23.0512 30.1382C23.078 30.0692 23.1115 29.9995 23.1535 29.9337C23.2263 29.8195 23.2594 29.6847 23.2496 29.55C23.221 29.1607 23.1985 28.4296 23.7126 28.1982C24.148 28.0023 24.6822 28.1157 25.0229 28.229C25.0684 28.2442 25.1149 28.2554 25.1616 28.2643C25.1497 28.2375 25.1369 28.2106 25.1221 28.1839C24.5892 27.2181 25.0987 26.6788 25.3729 26.476Z" fill="#823C26"/>
<path d="M28.2112 30.3682C28.092 30.2589 27.8545 30.3143 27.7518 30.3812C27.7743 30.5213 27.7756 30.6646 27.7562 30.806L27.635 31.6885C27.635 31.7596 27.6327 31.8294 27.6286 31.8979C27.9241 31.9871 28.0708 31.7218 28.0955 31.5398C28.1062 31.4614 28.1236 31.3842 28.1477 31.3089C28.2264 31.0635 28.5098 30.6419 28.2112 30.3682Z" fill="#FD995B"/>
<path d="M22.5162 30.3682C22.6354 30.2589 22.8728 30.3143 22.9755 30.3812C22.953 30.5213 22.9517 30.6646 22.9711 30.806L23.0923 31.6885C23.0923 31.7596 23.0945 31.8294 23.0987 31.8979C22.8033 31.9871 22.6565 31.7218 22.6317 31.5398C22.6211 31.4614 22.6037 31.3842 22.5795 31.3089C22.501 31.0635 22.2175 30.6419 22.5162 30.3682Z" fill="#FD995B"/>
<path d="M27.7158 30.1084C27.6885 30.0372 27.6541 29.9652 27.6108 29.8972C27.5374 29.7821 27.5051 29.646 27.515 29.5102C27.5433 29.1197 27.5281 28.3561 27.0155 28.1255C26.58 27.9296 26.0459 28.043 25.7053 28.1563C25.484 28.2299 25.2443 28.2299 25.0231 28.1563C24.6825 28.043 24.1483 27.9296 23.7129 28.1255C23.1989 28.3567 23.185 29.1241 23.2136 29.5135C23.2236 29.6482 23.1904 29.783 23.1175 29.8972C23.0756 29.9631 23.042 30.0327 23.0152 30.1017C22.9281 30.3253 22.9027 30.5681 22.9354 30.8056L23.0565 31.6882C23.0565 32.9571 23.7339 33.8196 24.31 34.267C24.6108 34.5005 24.9819 34.6274 25.3641 34.6274C25.7464 34.6274 26.1175 34.5005 26.4183 34.267C26.9944 33.8196 27.6718 32.9571 27.6718 31.6882L27.7929 30.8058C27.8254 30.5707 27.8008 30.3304 27.7158 30.1084Z" fill="#F9BA8F"/>
<path d="M25.8217 34.2673C25.2455 33.8198 24.5682 32.9573 24.5682 31.6885L24.447 30.8059C24.4143 30.5683 24.4397 30.3256 24.5268 30.102C24.5537 30.033 24.5872 29.9633 24.6292 29.8975C24.702 29.7833 24.7351 29.6485 24.7253 29.5138C24.6987 29.1523 24.7093 28.4654 25.1225 28.1839C25.089 28.1763 25.0558 28.1675 25.0231 28.1566C24.6825 28.0434 24.1483 27.9299 23.7129 28.1259C23.1989 28.3571 23.185 29.1245 23.2136 29.5139C23.2236 29.6486 23.1904 29.7834 23.1175 29.8976C23.0756 29.9634 23.042 30.0331 23.0152 30.102C22.9281 30.3258 22.9027 30.5684 22.9354 30.8059L23.0565 31.6886C23.0565 32.9575 23.7339 33.8199 24.31 34.2673C24.6108 34.5009 24.9819 34.6277 25.3642 34.6277C25.6281 34.6277 25.8861 34.5659 26.12 34.4516C26.0152 34.4002 25.9148 34.3395 25.8217 34.2673Z" fill="#FCAD6D"/>
<path d="M28.1516 38.0204V39.9973H29.4693C29.4693 39.9973 29.355 38.3022 28.6224 37.775C28.426 37.6337 28.1516 37.7784 28.1516 38.0204Z" fill="#4FABF7"/>
</svg>
